:SAMPLES-PER-SECOND 30
:FULLY-SPECIFIED
:DEGREES
141
root  -11.8983 33.5114 -3.70553 -137.274 3.56712 -179.702
RightUpLeg  -64.4494 -14.0447 10.1747
RightLeg  21.5866 -2.45278 -0.79485
RightFoot  9.50457 0.0735129 -0.334419
RightToes  -25.5725 -0.114651 -0.219305
Spine  9.74406 0.860233 1.10711
Spine1  18.9385 2.43032 1.29586
HEad  -32.7634 -0.172992 -0.758654
LeftShoulder1  -1.94126e-019 -3.10601e-018 -2.51263e-017
LeftArm  -12.8305 -3.77667 -81.8675
LeftForeArm  25.0157 -17.4316 -2.54215
LeftHand  -0.422507 -0.253774 8.77849
RightShoulder  -4.96962e-017 0 -2.36833e-017
RightArm  -22.2223 1.82333 75.945
RightForeArm  41.3073 22.8985 2.72053
RightHand  0.0643509 -6.01723 -14.9969
LeftUpLeg  -65.4411 3.44694 0.247837
LeftLeg  24.0226 10.4424 3.84057
LeftFoot  11.1799 -0.208596 2.29257
LeftToes  -21.2487 2.14545e-006 -7.7278e-009
142
root  -11.8465 33.5613 -3.81066 -138.223 2.73326 -179.115
RightUpLeg  -62.6164 -13.9093 10.2135
RightLeg  20.8077 -3.31673 -1.02338
RightFoot  9.70587 0.0863615 -0.479172
RightToes  -25.9187 -0.117311 -0.221644
Spine  9.11444 0.903414 1.40211
Spine1  17.8114 2.47911 1.89466
HEad  -33.4061 -0.311396 -0.86837
LeftShoulder1  -1.94126e-019 -3.10601e-018 -2.51263e-017
LeftArm  -12.6971 -3.18681 -82.1035
LeftForeArm  24.9716 -17.6812 -2.56799
LeftHand  -0.418825 -0.237147 8.72676
RightShoulder  -4.96962e-017 0 -2.36833e-017
RightArm  -23.151 1.16417 75.3491
RightForeArm  41.1348 22.8639 2.72192
RightHand  0.0904931 -6.21351 -15.1481
LeftUpLeg  -64.3414 3.60802 0.873479
LeftLeg  23.8749 9.98199 3.64435
LeftFoot  10.9358 -0.190107 2.14735
LeftToes  -21.7832 2.14545e-006 -7.7278e-009
143
root  -11.8041 33.599 -4.04074 -140.345 2.354 -178.698
RightUpLeg  -59.7038 -13.7273 9.50285
RightLeg  20.6122 -4.19375 -1.27697
RightFoot  9.46184 0.0955971 -0.596338
RightToes  -26.2853 -0.120199 -0.224375
Spine  8.68497 0.941054 1.49213
Spine1  17.0254 2.56917 2.05819
HEad  -34.5799 -0.261238 -0.98326
LeftShoulder1  -1.94126e-019 -3.10601e-018 -2.51263e-017
LeftArm  -12.6065 -2.70118 -82.029
LeftForeArm  24.93 -17.8788 -2.59036
LeftHand  -0.42524 -0.31485 8.74562
RightShoulder  -4.96962e-017 0 -2.36833e-017
RightArm  -23.2991 0.398568 74.9108
RightForeArm  41.1862 22.9579 2.73763
RightHand  0.112765 -6.37609 -15.295
LeftUpLeg  -62.005 3.75185 1.42871
LeftLeg  24.1672 9.76858 3.62346
LeftFoot  10.2492 -0.163356 1.98292
LeftToes  -22.6306 2.14545e-006 -7.7278e-009
144
root  -11.7994 33.6503 -4.36757 -143.018 2.38802 -178.745
RightUpLeg  -56.441 -14.0048 8.43087
RightLeg  20.7982 -4.47696 -1.37879
RightFoot  8.8117 0.0874882 -0.57597
RightToes  -26.5761 -0.122815 -0.227479
Spine  8.30103 0.881242 1.37167
Spine1  16.2836 2.45348 1.87094
HEad  -36.2228 -0.163613 -1.30338
LeftShoulder1  -1.94126e-019 -3.10601e-018 -2.51263e-017
LeftArm  -11.4375 -2.28971 -81.6052
LeftForeArm  24.0993 -18.0891 -2.65185
LeftHand  -0.392291 0.133803 8.71973
RightShoulder  -4.96962e-017 0 -2.36833e-017
RightArm  -23.1898 -0.214032 74.6144
RightForeArm  41.755 22.8319 2.68686
RightHand  0.108825 -6.32877 -15.5291
LeftUpLeg  -58.8383 3.56562 1.66465
LeftLeg  24.373 9.94575 3.72876
LeftFoot  9.53644 -0.144331 1.89172
LeftToes  -23.3663 2.14545e-006 -7.7278e-009
145
root  -11.8006 33.7172 -4.77553 -146 2.46942 -178.942
RightUpLeg  -52.7252 -14.2428 7.03296
RightLeg  20.9928 -4.84908 -1.51095
RightFoot  8.10697 0.0792122 -0.557212
RightToes  -27.1289 -0.124658 -0.231524
Spine  7.86547 0.873987 1.17988
Spine1  15.4336 2.4451 1.56284
HEad  -38.025 -0.229427 -1.37086
LeftShoulder1  -1.94126e-019 -3.10601e-018 -2.51263e-017
LeftArm  -11.5793 -1.78064 -81.4211
LeftForeArm  24.6259 -18.0278 -2.62072
LeftHand  -0.393654 -0.0569213 8.46064
RightShoulder  -4.96962e-017 0 -2.36833e-017
RightArm  -23.4706 -1.0729 74.4148
RightForeArm  42.3162 22.6677 2.62932
RightHand  0.123797 -6.42488 -15.757
LeftUpLeg  -55.0834 3.39336 1.66896
LeftLeg  24.2919 10.0622 3.75582
LeftFoot  8.7193 -0.122093 1.76292
LeftToes  -24.031 2.14545e-006 -7.7278e-009
146
root  -11.8054 33.811 -5.23442 -148.994 2.6129 -179.217
RightUpLeg  -48.8699 -14.3137 5.49579
RightLeg  21.1302 -5.32923 -1.67382
RightFoot  7.37462 0.0710615 -0.540655
RightToes  -27.1235 -0.125937 -0.233554
Spine  7.33737 0.841674 0.962677
Spine1  14.4069 2.37063 1.23717
HEad  -40.3039 -0.0794394 -1.66477
LeftShoulder1  -1.94126e-019 -3.10601e-018 -2.51263e-017
LeftArm  -11.1027 -1.01325 -81.0384
LeftForeArm  24.2335 -18.7531 -2.77504
LeftHand  -0.378814 0.0870842 8.35069
RightShoulder  -4.96962e-017 0 -2.36833e-017
RightArm  -24.0728 -2.01762 74.3815
RightForeArm  42.4645 22.4165 2.57442
RightHand  0.135887 -6.51709 -16.0784
LeftUpLeg  -51.0056 3.26197 1.54108
LeftLeg  23.7574 10.1562 3.68381
LeftFoot  8.07549 -0.105648 1.65814
LeftToes  -24.7393 2.14545e-006 -7.7278e-009
147
root  -11.7914 33.9312 -5.73831 -151.76 2.58675 -179.436
RightUpLeg  -44.8399 -14.6982 4.35906
RightLeg  20.5221 -5.45497 -1.6495
RightFoot  6.84086 0.0628676 -0.490368
RightToes  -27.0497 -0.127192 -0.235337
Spine  6.6174 0.782752 0.800765
Spine1  13.0137 2.21543 1.07063
HEad  -42.9459 0.0187381 -2.05684
LeftShoulder1  -1.94126e-019 -3.10601e-018 -2.51263e-017
LeftArm  -10.7415 0.355297 -80.7564
LeftForeArm  23.984 -20.2256 -3.06635
LeftHand  -0.377568 0.178434 8.46064
RightShoulder  -4.96962e-017 0 -2.36833e-017
RightArm  -24.7317 -3.28259 74.3434
RightForeArm  42.291 22.173 2.53594
RightHand  0.138386 -6.50224 -16.1467
LeftUpLeg  -46.9027 3.06403 1.51918
LeftLeg  22.8074 10.2504 3.52797
LeftFoot  7.55171 -0.0931206 1.57246
LeftToes  -24.7033 2.14545e-006 -7.7278e-009
148
root  -11.7757 34.0584 -6.27137 -154.113 2.57259 -179.712
RightUpLeg  -41.1339 -15.2183 3.36286
RightLeg  19.7203 -5.37293 -1.54285
RightFoot  6.49566 0.0572159 -0.438108
RightToes  -27.234 -0.128421 -0.236886
Spine  5.70056 0.73476 0.574364
Spine1  11.2098 2.03456 0.859156
HEad  -46.1151 0.15335 -2.06124
LeftShoulder1  -1.94126e-019 -3.10601e-018 -2.51263e-017
LeftArm  -10.4225 2.1505 -80.4234
LeftForeArm  24.0122 -22.1009 -3.43375
LeftHand  -0.368041 0.217089 8.30529
RightShoulder  -4.96962e-017 0 -2.36833e-017
RightArm  -25.2123 -4.95895 74.4008
RightForeArm  42.4232 22.0967 2.51533
RightHand  0.156546 -6.62207 -16.2906
LeftUpLeg  -42.961 2.78678 1.44813
LeftLeg  21.4449 10.4596 3.32538
LeftFoot  7.29753 -0.0893159 1.5484
LeftToes  -24.7919 2.14545e-006 -7.7278e-009
149
root  -11.7432 34.1877 -6.81239 -156.095 2.40508 -179.952
RightUpLeg  -37.6352 -15.8217 2.54999
RightLeg  18.6372 -5.25742 -1.40253
RightFoot  6.25055 0.0532683 -0.397045
RightToes  -27.3711 -0.12962 -0.238215
Spine  4.66647 0.649265 0.390481
Spine1  9.17217 1.76285 0.725272
HEad  -50.0331 0.45934 -2.10514
LeftShoulder1  -1.94126e-019 -3.10601e-018 -2.51263e-017
LeftArm  -10.2587 4.15066 -80.1302
LeftForeArm  24.1771 -24.011 -3.81608
LeftHand  -0.352355 0.29385 8.06366
RightShoulder  -4.96962e-017 0 -2.36833e-017
RightArm  -25.3126 -6.76808 74.4312
RightForeArm  42.8674 21.9577 2.46859
RightHand  0.138732 -6.49303 -16.2953
LeftUpLeg  -39.2404 2.26419 1.52165
LeftLeg  19.7689 10.8227 3.09681
LeftFoot  7.2364 -0.090499 1.57779
LeftToes  -24.8947 2.14545e-006 -7.7278e-009
150
root  -11.7006 34.3156 -7.3843 -158.074 2.13919 179.812
RightUpLeg  -33.8938 -16.375 1.68992
RightLeg  17.2235 -5.23953 -1.25983
RightFoot  6.22155 0.052338 -0.388959
RightToes  -27.639 -0.130785 -0.239337
Spine  3.69947 0.582382 0.224614
Spine1  7.26204 1.55726 0.563424
HEad  -54.5034 0.872385 -1.98559
LeftShoulder1  -1.94126e-019 -3.10601e-018 -2.51263e-017
LeftArm  -10.0563 5.97695 -79.8942
LeftForeArm  24.2186 -25.5327 -4.14012
LeftHand  -0.335889 0.542694 8.05602
RightShoulder  -4.96962e-017 0 -2.36833e-017
RightArm  -25.3963 -8.50546 74.5081
RightForeArm  43.4061 21.688 2.39303
RightHand  0.128571 -6.42161 -16.2687
LeftUpLeg  -35.3262 1.52745 1.65154
LeftLeg  17.7563 11.3135 2.81321
LeftFoot  7.34874 -0.0960294 1.6561
LeftToes  -25.0739 2.14545e-006 -7.7278e-009
151
root  -11.6367 34.437 -7.98126 -160.012 1.90482 179.727
RightUpLeg  -29.5251 -16.6249 0.882
RightLeg  14.6107 -5.40579 -1.04109
RightFoot  6.61278 0.0560864 -0.440603
RightToes  -27.8226 -0.131914 -0.240266
Spine  2.76786 0.5504 0.124039
Spine1  5.42038 1.44079 0.485392
HEad  -58.4104 1.43324 -1.85242
LeftShoulder1  -1.94126e-019 -3.10601e-018 -2.51263e-017
LeftArm  -10.0354 7.72818 -79.7249
LeftForeArm  24.527 -26.4506 -4.32752
LeftHand  -0.337342 0.399893 7.87319
RightShoulder  -4.96962e-017 0 -2.36833e-017
RightArm  -25.3776 -10.3361 74.5866
RightForeArm  44.0016 21.5009 2.33086
RightHand  0.0961785 -6.21397 -15.8246
LeftUpLeg  -31.3163 0.953621 1.84648
LeftLeg  15.5437 11.748 2.44659
LeftFoot  7.4673 -0.102021 1.72835
LeftToes  -25.088 2.14545e-006 -7.7278e-009
152
root  -11.575 34.5417 -8.58093 -161.812 1.69061 179.649
RightUpLeg  -25.3617 -16.2454 -0.0651853
RightLeg  12.2743 -6.14981 -0.925556
RightFoot  6.92011 0.0645547 -0.555581
RightToes  -27.9069 -0.133004 -0.241016
Spine  1.87114 0.524002 0.0564252
Spine1  3.64693 1.34066 0.454337
HEad  -61.5802 2.00105 -1.677
LeftShoulder1  -1.94126e-019 -3.10601e-018 -2.51263e-017
LeftArm  -9.78367 9.41205 -79.6631
LeftForeArm  24.4224 -27.2262 -4.5076
LeftHand  -0.31797 0.741621 7.92962
RightShoulder  -4.96962e-017 0 -2.36833e-017
RightArm  -25.1461 -12.1517 74.5758
RightForeArm  44.3347 21.399 2.29674
RightHand  0.103142 -6.2743 -15.8875
LeftUpLeg  -27.4292 0.527359 1.94581
LeftLeg  13.2775 12.0407 2.01797
LeftFoot  7.62727 -0.107986 1.79242
LeftToes  -24.9812 2.14545e-006 -7.7278e-009
153
root  -11.5254 34.6079 -9.16931 -163.619 1.58357 179.407
RightUpLeg  -21.8359 -17.1146 -0.83612
RightLeg  10.8825 -5.52655 -0.695257
RightFoot  6.7236 0.0585002 -0.461812
RightToes  -27.959 -0.13405 -0.241599
Spine  1.04931 0.501013 -0.0810751
Spine1  2.01306 1.262 0.258044
HEad  -63.7597 2.40204 -1.30526
LeftShoulder1  -1.94126e-019 -3.10601e-018 -2.51263e-017
LeftArm  -9.54512 11.0584 -79.4984
LeftForeArm  24.6375 -27.9057 -4.65126
LeftHand  -0.307288 0.777417 7.71632
RightShoulder  -4.96962e-017 0 -2.36833e-017
RightArm  -24.6934 -13.9294 74.6348
RightForeArm  44.5754 21.3948 2.28519
RightHand  0.086494 -6.16634 -15.4074
LeftUpLeg  -23.6204 0.110929 1.82485
LeftLeg  11.1443 12.3712 1.60593
LeftFoot  7.71855 -0.113718 1.85051
LeftToes  -24.7434 2.14545e-006 -7.7278e-009
154
root  -11.4661 34.6589 -9.76579 -165.717 1.29506 179.235
RightUpLeg  -17.8976 -17.4243 -1.805
RightLeg  9.50728 -5.56817 -0.565174
RightFoot  6.55838 0.0579847 -0.449098
RightToes  -27.9079 -0.135051 -0.242029
Spine  0.426888 0.422306 -0.151954
Spine1  0.772494 1.0802 0.166288
HEad  -65.0453 2.52299 -0.79357
LeftShoulder1  -1.94126e-019 -3.10601e-018 -2.51263e-017
LeftArm  -9.01779 12.5747 -79.4533
LeftForeArm  24.3252 -28.3946 -4.78087
LeftHand  -0.337877 0.781899 8.50055
RightShoulder  -4.96962e-017 0 -2.36833e-017
RightArm  -24.2208 -15.3551 74.6682
RightForeArm  44.7234 21.2065 2.24325
RightHand  0.0764159 -6.09331 -15.3313
LeftUpLeg  -19.6567 -0.302761 1.76219
LeftLeg  9.24973 12.5022 1.20767
LeftFoot  7.7652 -0.116938 1.87263
LeftToes  -24.498 2.14545e-006 -7.7278e-009
